{"title":"Bicycle Thieves (2014) - DVDRip - x264 - SAP - 1xCD [DDR]","uid":9919975,"size":750478544,"categoryP":"video","categoryS":"movies","magnet":"?xt=urn:btih:138c9e5774c6dc3afe785d7f1e5e51ff1c6c3bc5&amp;dn=Bicycle+Thieves+%282014%29+-+DVDRip+-+x264+-+SAP+-+1xCD+%5BDDR%5D&amp;tr=udp%3A%2F%2Ftracker.openbittorrent.com%3A80&amp;tr=udp%3A%2F%2Fopen.demonii.com%3A1337&amp;tr=udp%3A%2F%2Ftracker.coppersurfer.tk%3A6969&amp;tr=udp%3A%2F%2Fexodus.desync.com%3A6969","seeders":1,"leechers":0,"uploader":"SaM","files":15,"time":1396995110,"description":"Source                                      : DVD9 [TMR]\nComplete name                            : Bicycle Thieves (2014) - DVDRip - x264 - SAP - 1xCD [DDR].mp4\nFormat                                  : MPEG-4\nFormat profile                          : Base Media\nCodec ID                                : isom\nFile size                                : 700 MiB\nDuration                                : 2h 24mn\nOverall bit rate                        : 677 Kbps\n\nID                                      : 1\nFormat                                  : AVC\nFormat/Info                              : Advanced Video Codec\nFormat profile                          : &lt;a class=&quot;__cf_email__&quot; href=&quot;/cdn-cgi/l/email-protection&quot; data-cfemail=&quot;d499b5bdba9498e7fae5&quot;&gt;[email&amp;#160;protected]&lt;/a&gt;&lt;script cf-hash='f9e31' type=&quot;text/javascript&quot;&gt;\n/* &lt;![CDATA[ */!function(){try{var t=&quot;currentScript&quot;in document?document.currentScript:function(){for(var t=document.getElementsByTagName(&quot;script&quot;),e=t.length;e--;)if(t[e].getAttribute(&quot;cf-hash&quot;))return t[e]}();if(t&amp;&amp;t.previousSibling){var e,r,n,i,c=t.previousSibling,a=c.getAttribute(&quot;data-cfemail&quot;);if(a){for(e=&quot;&quot;,r=parseInt(a.substr(0,2),16),n=2;a.length-n;n+=2)i=parseInt(a.substr(n,2),16)^r,e+=String.fromCharCode(i);e=document.createTextNode(e),c.parentNode.replaceChild(e,c)}}}catch(u){}}();/* ]]&gt; */&lt;/script&gt;\nFormat settings, CABAC                  : Yes\nFormat settings, ReFrames                : 3 frames\nCodec ID                                : avc1\nCodec ID/Info                            : Advanced Video Coding\nDuration                                : 2h 24mn\nBit rate                                : 595 Kbps\nMaximum bit rate                        : 3 321 Kbps\nWidth                                    : 640 pixels\nHeight                                  : 272 pixels\nDisplay aspect ratio                    : 2.35:1\nFrame rate mode                          : Constant\nFrame rate                              : 23.976 fps\nColor space                              : YUV\nChroma subsampling                      : 4:2:0\nBit depth                                : 8 bits\nScan type                                : Progressive\nBits/(Pixel*Frame)                      : 0.143\nStream size                              : 615 MiB (88%)\n\nFormat                                  : MPEG Audio\nFormat version                          : Version 1\nFormat profile                          : Layer 3\nMode                                    : Joint stereo\nMode extension                          : MS Stereo\nCodec ID                                : 6B\nDuration                                : 2h 24mn\nBit rate mode                            : Constant\nBit rate                                : 80.0 Kbps\nMaximum bit rate                        : 83.5 Kbps\nChannel(s)                              : 2 channels\nSampling rate                            : 32.0 KHz\nCompression mode                        : Lossy\nStream size                              : 82.7 MiB (12%)\n\n[ SCREENS ]\n\n &lt;a href=&quot;\nhttp://img513.imageshack.us/img513/3047/lbxn.png&quot; rel=&quot;nofollow&quot; target=&quot;_NEW&quot;&gt;\nhttp://img513.imageshack.us/img513/3047/lbxn.png&lt;/a&gt;\n &lt;a href=&quot;\nhttp://img513.imageshack.us/img513/5858/vqwa.png&quot; rel=&quot;nofollow&quot; target=&quot;_NEW&quot;&gt;\nhttp://img513.imageshack.us/img513/5858/vqwa.png&lt;/a&gt;\n &lt;a href=&quot;\nhttp://img534.imageshack.us/img534/489/gyme.png&quot; rel=&quot;nofollow&quot; target=&quot;_NEW&quot;&gt;\nhttp://img534.imageshack.us/img534/489/gyme.png&lt;/a&gt;\n &lt;a href=&quot;\nhttp://img850.imageshack.us/img850/5030/ha9w.png&quot; rel=&quot;nofollow&quot; target=&quot;_NEW&quot;&gt;\nhttp://img850.imageshack.us/img850/5030/ha9w.png&lt;/a&gt;\n &lt;a href=&quot;\nhttp://img833.imageshack.us/img833/7686/0ib8.png&quot; rel=&quot;nofollow&quot; target=&quot;_NEW&quot;&gt;\nhttp://img833.imageshack.us/img833/7686/0ib8.png&lt;/a&gt;\n &lt;a href=&quot;\nhttp://img856.imageshack.us/img856/6281/67nh.png&quot; rel=&quot;nofollow&quot; target=&quot;_NEW&quot;&gt;\nhttp://img856.imageshack.us/img856/6281/67nh.png&lt;/a&gt;\n &lt;a href=&quot;\nhttp://img850.imageshack.us/img850/6813/d20s.png&quot; rel=&quot;nofollow&quot; target=&quot;_NEW&quot;&gt;\nhttp://img850.imageshack.us/img850/6813/d20s.png&lt;/a&gt;\n &lt;a href=&quot;\nhttp://img853.imageshack.us/img853/3814/a3d0.png&quot; rel=&quot;nofollow&quot; target=&quot;_NEW&quot;&gt;\nhttp://img853.imageshack.us/img853/3814/a3d0.png&lt;/a&gt;","torrent":{"xt":"urn:btih:138c9e5774c6dc3afe785d7f1e5e51ff1c6c3bc5","amp;dn":"Bicycle+Thieves+%282014%29+-+DVDRip+-+x264+-+SAP+-+1xCD+%5BDDR%5D","amp;tr":["udp%3A%2F%2Ftracker.openbittorrent.com%3A80","udp%3A%2F%2Fopen.demonii.com%3A1337","udp%3A%2F%2Ftracker.coppersurfer.tk%3A6969","udp%3A%2F%2Fexodus.desync.com%3A6969"],"infoHash":"138c9e5774c6dc3afe785d7f1e5e51ff1c6c3bc5","infoHashBuffer":{"type":"Buffer","data":[19,140,158,87,116,198,220,58,254,120,93,127,30,94,81,255,28,108,59,197]},"announce":[],"urlList":[]}}